<svg xmlns="http://www.w3.org/2000/svg" xml:space="preserve"
    style="fill-rule:evenodd;clip-rule:evenodd;stroke-linecap:round;stroke-linejoin:round;stroke-miterlimit:1.5"
    viewBox="0 0 746 315"><g id="Base"><path d="M30.801 151h21.532v21.532H30.801zm81.801-6.09h21.532v21.532h-21.532zm23.974-29.242h21.532V137.2h-21.532z" style="fill:#fdaa28;stroke:#f89d28;stroke-width:1px"/><path d="M119.479 236.736V204.9h30.032v-33.719h29.097s.705 43.878-1.297 65.556z" style="fill:#fda225;stroke:#fb960e;stroke-width:1px"/><path d="M39.859 216.902h10.315v-26.044h35.695v45.878h33.608v33.696H69.785v-22.461H39.858v-31.07Z" style="fill:#fc931f;stroke:#ea8400;stroke-width:1px"/><path d="M177.311 236.736c-7.591 55.727-47.255 75.314-77.517 77.118v-43.422h19.685v-33.696z" style="fill:#f78120;stroke:#fb7304;stroke-width:1px"/><path d="M99.794 313.854c-1.578.094-3.087.14-4.608.14-41.032 0-83.522-28.105-83.522-95.946 0-.383.065-.763.1-1.146h28.095v31.07h29.927v22.461h30.007v43.422Z" style="fill:#f56f1b;stroke:#fa6000;stroke-width:1px"/></g><path d="M.5.544c-.064 59.724 33.883 84.83 90.331 87.034C94.279 25.273 61.131-.725.5.544m97.701 77.961C96.643 27.188 124.252 1.885 178.7.519c-1.748 56.785-30.313 81.243-80.499 77.986" style="fill:#70b648;stroke:#5cb138;stroke-width:1px"/><path d="M86.723 190.858h13.071v-85.304c8.775-33.97 23.683-57.073 52.534-81.554-31.654 12.912-49.245 35.455-57.132 64.642h-2.812c-13.12-34.741-34.63-53.359-60.926-62.781 32.454 27.629 50.219 54.149 55.29 79.711v85.286" style="fill:#3d975a;stroke:#19904a;stroke-width:1px"/><text x="219.53" y="227.22" style="font-family:&quot;Poppins-Bold&quot;,&quot;Poppins&quot;;font-weight:700;font-size:199.868px">PIXEL</text></svg>