<svg xmlns="http://www.w3.org/2000/svg" xml:space="preserve"
    style="fill-rule:evenodd;clip-rule:evenodd;stroke-linecap:round;stroke-linejoin:round;stroke-miterlimit:1.5"
    viewBox="0 0 213 373"><g id="Base"><path d="M36.401 178.814h25.512v25.512H36.401zm96.919-7.215h25.512v25.512H133.32zm28.405-34.646h25.512v25.512h-25.512z" style="fill:#fdaa28;stroke:#f89d28;stroke-width:1px"/><path d="M141.467 280.396v-37.72h35.583v-39.951h34.474s.835 51.987-1.537 77.671z" style="fill:#fda225;stroke:#fb960e;stroke-width:1px"/><path d="M47.133 256.896h12.222v-30.857h42.292v54.356h39.82v39.924H82.591v-26.612H47.133v-36.812Z" style="fill:#fc931f;stroke:#ea8400;stroke-width:1px"/><path d="M209.988 280.396c-8.994 66.027-55.989 89.232-91.843 91.371v-51.446h23.323v-39.924h68.52Z" style="fill:#f78120;stroke:#fb7304;stroke-width:1px"/><path d="M118.145 371.766c-1.87.111-3.657.166-5.459.166-48.615 0-98.958-33.3-98.958-113.678 0-.453.076-.904.119-1.358h33.288v36.812h35.458v26.612h35.553z" style="fill:#f56f1b;stroke:#fa6000;stroke-width:1px"/></g><path d="M.5.552C.425 71.314 40.645 101.06 107.525 103.671 111.61 29.851 72.336-.952.5.552m115.758 92.369C114.412 32.12 147.124 2.141 211.634.522c-2.071 67.28-35.916 96.258-95.376 92.399" style="fill:#70b648;stroke:#5cb138;stroke-width:1px"/><path d="M102.658 226.039h15.487v-101.07c10.396-40.248 28.06-67.621 62.243-96.626-37.505 15.298-58.346 42.007-67.691 76.588h-3.332C93.82 63.77 68.335 41.711 37.18 30.547c38.452 32.735 59.5 64.157 65.508 94.443v101.049" style="fill:#3d975a;stroke:#19904a;stroke-width:1px"/></svg>